<svg width="14" height="14" viewBox="0 0 14 14" fill="none" xmlns="http://www.w3.org/2000/svg">
<g clip-path="url(#clip0_1_376)">
<path d="M4.58232 0.927508C3.28342 1.37811 2.16325 2.23336 1.38634 3.36765C0.609437 4.50194 0.216749 5.85547 0.265957 7.22943C0.315165 8.60339 0.803675 9.92535 1.65973 11.0012C2.51579 12.077 3.69428 12.8499 5.02208 13.2064C6.09857 13.4842 7.22641 13.4964 8.30865 13.242C9.28905 13.0217 10.1955 12.5507 10.9391 11.8749C11.7131 11.1501 12.2749 10.2281 12.5641 9.2079C12.8784 8.09848 12.9343 6.93182 12.7276 5.79743H6.68263V8.30501H10.1835C10.1135 8.70495 9.96359 9.08666 9.74266 9.42731C9.52173 9.76795 9.23435 10.0605 8.89771 10.2875C8.47027 10.5704 7.98835 10.7607 7.48294 10.8461C6.97609 10.9404 6.4562 10.9404 5.94935 10.8461C5.4356 10.74 4.94961 10.528 4.5224 10.2235C3.83599 9.73764 3.32058 9.04735 3.04974 8.25118C2.7744 7.44008 2.7744 6.56079 3.04974 5.74969C3.24253 5.18116 3.56124 4.66352 3.98209 4.2354C4.46369 3.73647 5.07341 3.37983 5.74435 3.20462C6.4153 3.0294 7.12154 3.04237 7.7856 3.24212C8.30438 3.40129 8.77877 3.67952 9.17091 4.05462C9.56565 3.66191 9.95972 3.26818 10.3531 2.87345C10.5562 2.66118 10.7776 2.45907 10.9777 2.24173C10.379 1.68467 9.67635 1.25119 8.9099 0.966101C7.51413 0.459294 5.98691 0.445674 4.58232 0.927508Z" fill="white"/>
<path d="M4.58232 0.927513C5.98679 0.445352 7.51401 0.458613 8.9099 0.965091C9.67648 1.25212 10.3789 1.68769 10.9767 2.24681C10.7736 2.46415 10.5593 2.66728 10.3521 2.87853C9.95802 3.27191 9.5643 3.66395 9.17091 4.05462C8.77877 3.67953 8.30438 3.40129 7.7856 3.24212C7.12176 3.04168 6.41554 3.02795 5.74442 3.20245C5.07329 3.37695 4.4632 3.73293 3.98107 4.23134C3.56023 4.65946 3.24152 5.17711 3.04873 5.74564L0.943336 4.11556C1.69694 2.62113 3.00175 1.47801 4.58232 0.927513Z" fill="#E33629"/>
<path d="M0.384743 5.73038C0.497822 5.16953 0.685699 4.62639 0.943337 4.11554L3.04873 5.74968C2.77338 6.56078 2.77338 7.44007 3.04873 8.25116C2.34727 8.79283 1.64547 9.33721 0.943337 9.88429C0.298568 8.60086 0.101924 7.13855 0.384743 5.73038Z" fill="#F8BD00"/>
<path d="M6.68263 5.79645H12.7276C12.9343 6.93084 12.8784 8.0975 12.5641 9.20692C12.2749 10.2271 11.7131 11.1491 10.9391 11.8739C10.2597 11.3438 9.57717 10.8177 8.89771 10.2875C9.23457 10.0603 9.52209 9.76743 9.74303 9.42643C9.96397 9.08542 10.1138 8.70331 10.1835 8.30301H6.68263C6.68162 7.46817 6.68263 6.63231 6.68263 5.79645Z" fill="#587DBD"/>
<path d="M0.942322 9.88428C1.64446 9.34262 2.34625 8.79824 3.04771 8.25116C3.31909 9.04761 3.83523 9.73793 4.5224 10.2235C4.95094 10.5265 5.43798 10.7368 5.9524 10.841C6.45925 10.9353 6.97914 10.9353 7.48599 10.841C7.9914 10.7556 8.47332 10.5653 8.90076 10.2824C9.58021 10.8126 10.2627 11.3387 10.9422 11.8688C10.1986 12.5449 9.2922 13.0164 8.3117 13.2369C7.22946 13.4913 6.10162 13.4791 5.02513 13.2013C4.17374 12.974 3.37848 12.5732 2.6892 12.0242C1.9597 11.4449 1.36384 10.715 0.942322 9.88428Z" fill="#319F43"/>
</g>
<defs>
<clipPath id="clip0_1_376">
<rect width="13" height="13" fill="white" transform="translate(0.0536499 0.499939)"/>
</clipPath>
</defs>
</svg>
