<svg width="66" height="65" viewBox="0 0 66 65" fill="none" xmlns="http://www.w3.org/2000/svg">
<path fill-rule="evenodd" clip-rule="evenodd" d="M33 65C50.9493 65 65.5 50.4493 65.5 32.5C65.5 14.5507 50.9493 0 33 0C15.0507 0 0.5 14.5507 0.5 32.5C0.5 50.4493 15.0507 65 33 65ZM26.2929 29.239C28.2782 30.5655 30.6123 31.2736 33 31.2736C36.2018 31.2736 39.2725 30.0017 41.5366 27.7376C43.8006 25.4736 45.0725 22.4029 45.0725 19.2011C45.0725 16.8133 44.3645 14.4792 43.0379 12.4939C41.7114 10.5086 39.8259 8.96124 37.62 8.0475C35.414 7.13376 32.9866 6.89469 30.6448 7.36051C28.3029 7.82633 26.1518 8.97612 24.4634 10.6645C22.7751 12.3529 21.6253 14.504 21.1594 16.8458C20.6936 19.1877 20.9327 21.6151 21.8464 23.821C22.7602 26.027 24.3076 27.9125 26.2929 29.239ZM55.4204 48.52C55.4204 39.3449 40.4828 34.7229 33 34.7229C25.5172 34.7229 10.5796 39.3449 10.5796 48.52V55.4186H55.4204V48.52Z" fill="#D9D9D9"/>
</svg>
