<svg width="19" height="20" viewBox="0 0 19 20" fill="none" xmlns="http://www.w3.org/2000/svg">
<path d="M15.125 13.1667C15.125 11.834 14.4008 10.6366 13.25 9.81257C12.2548 9.09999 10.9407 8.66672 9.5 8.66672C8.05934 8.66672 6.74516 9.09999 5.75 9.81257C4.59922 10.6366 3.875 11.834 3.875 13.1667C3.875 15.652 6.39341 17.6667 9.5 17.6667C12.6066 17.6667 15.125 15.652 15.125 13.1667Z" fill="#FBFF2F"/>
<path d="M5.75 2.66675H13.25V8.66675V9.8126C12.2548 9.10002 10.9407 8.66675 9.5 8.66675C8.05934 8.66675 6.74516 9.10002 5.75 9.8126V8.66675V2.66675Z" fill="#FBFF2F"/>
<path d="M5.75 2.66675H13.25ZM5.75 2.66675H2V6.41675L5.75 8.66675M5.75 2.66675V8.66675ZM13.25 2.66675H17V6.41675L13.25 8.66675M13.25 2.66675V8.66675ZM5.75 9.8126C6.74516 9.10002 8.05934 8.66675 9.5 8.66675C10.9407 8.66675 12.2548 9.10002 13.25 9.8126M5.75 9.8126C4.59922 10.6366 3.875 11.834 3.875 13.1667C3.875 15.652 6.39341 17.6667 9.5 17.6667C12.6066 17.6667 15.125 15.652 15.125 13.1667C15.125 11.834 14.4008 10.6366 13.25 9.8126M5.75 9.8126V8.66675ZM13.25 9.8126V8.66675Z" fill="#FBFF2F"/>
<path d="M5.75 2.66675H13.25M5.75 2.66675H2V6.41675L5.75 8.66675M5.75 2.66675V8.66675M13.25 2.66675H17V6.41675L13.25 8.66675M13.25 2.66675V8.66675M5.75 8.66675V9.8126M13.25 8.66675V9.8126M5.75 9.8126C6.74516 9.10002 8.05934 8.66675 9.5 8.66675C10.9407 8.66675 12.2548 9.10002 13.25 9.8126M5.75 9.8126C4.59922 10.6366 3.875 11.834 3.875 13.1667C3.875 15.652 6.39341 17.6667 9.5 17.6667C12.6066 17.6667 15.125 15.652 15.125 13.1667C15.125 11.834 14.4008 10.6366 13.25 9.8126" stroke="#23438A" stroke-width="4" stroke-linecap="round" stroke-linejoin="round"/>
<path d="M13.25 2.66675H17V6.41675L13.25 8.66675" fill="#FBFF2F"/>
<path d="M13.25 2.66675H17V6.41675L13.25 8.66675" stroke="#23438A" stroke-width="4" stroke-linecap="round" stroke-linejoin="round"/>
<path d="M5.75 2.66675H2V6.41675L5.75 8.66675" fill="#FBFF2F"/>
<path d="M5.75 2.66675H2V6.41675L5.75 8.66675" stroke="#23438A" stroke-width="4" stroke-linecap="round" stroke-linejoin="round"/>
<path d="M15.125 13.1667C15.125 11.834 14.4008 10.6366 13.25 9.81257C12.2548 9.09999 10.9407 8.66672 9.5 8.66672C8.05934 8.66672 6.74516 9.09999 5.75 9.81257C4.59922 10.6366 3.875 11.834 3.875 13.1667C3.875 15.652 6.39341 17.6667 9.5 17.6667C12.6066 17.6667 15.125 15.652 15.125 13.1667Z" fill="#FBFF2F" stroke="#23438A" stroke-width="4" stroke-linecap="round" stroke-linejoin="round"/>
<path d="M5.75 2.66675H13.25V8.66675V9.8126C12.2548 9.10003 10.9407 8.66675 9.5 8.66675C8.05934 8.66675 6.74516 9.10003 5.75 9.8126V8.66675V2.66675Z" fill="#FBFF2F" stroke="#23438A" stroke-width="4" stroke-linecap="round" stroke-linejoin="round"/>
</svg>
