<svg width="106" height="16" viewBox="0 0 106 16" fill="none" xmlns="http://www.w3.org/2000/svg">
<path d="M5.05946 1.58228H10.4503C12.504 1.58228 14.1726 3.25088 14.1726 5.30455V10.6954C14.1726 11.6826 13.7804 12.6294 13.0824 13.3275C12.3843 14.0255 11.4376 14.4177 10.4503 14.4177H5.05946C3.00579 14.4177 1.33719 12.7491 1.33719 10.6954V5.30455C1.33719 4.31734 1.72936 3.37057 2.42742 2.6725C3.12548 1.97444 4.07225 1.58228 5.05946 1.58228ZM4.93111 2.86582C4.31836 2.86582 3.73071 3.10923 3.29743 3.54251C2.86415 3.97579 2.62073 4.56344 2.62073 5.1762V10.8238C2.62073 12.1009 3.65398 13.1342 4.93111 13.1342H10.5787C11.1914 13.1342 11.7791 12.8907 12.2124 12.4575C12.6457 12.0242 12.8891 11.4365 12.8891 10.8238V5.1762C12.8891 3.89907 11.8558 2.86582 10.5787 2.86582H4.93111ZM11.1242 3.82848C11.337 3.82848 11.541 3.91299 11.6915 4.06344C11.8419 4.21388 11.9264 4.41793 11.9264 4.63069C11.9264 4.84345 11.8419 5.0475 11.6915 5.19794C11.541 5.34838 11.337 5.4329 11.1242 5.4329C10.9114 5.4329 10.7074 5.34838 10.557 5.19794C10.4065 5.0475 10.322 4.84345 10.322 4.63069C10.322 4.41793 10.4065 4.21388 10.557 4.06344C10.7074 3.91299 10.9114 3.82848 11.1242 3.82848ZM7.7549 4.79113C8.60594 4.79113 9.42213 5.12921 10.0239 5.73098C10.6257 6.33276 10.9638 7.14895 10.9638 7.99999C10.9638 8.85103 10.6257 9.66722 10.0239 10.269C9.42213 10.8708 8.60594 11.2088 7.7549 11.2088C6.90386 11.2088 6.08768 10.8708 5.4859 10.269C4.88412 9.66722 4.54605 8.85103 4.54605 7.99999C4.54605 7.14895 4.88412 6.33276 5.4859 5.73098C6.08768 5.12921 6.90386 4.79113 7.7549 4.79113ZM7.7549 6.07468C7.24428 6.07468 6.75457 6.27752 6.3935 6.63859C6.03243 6.99965 5.82959 7.48936 5.82959 7.99999C5.82959 8.51061 6.03243 9.00033 6.3935 9.36139C6.75457 9.72246 7.24428 9.9253 7.7549 9.9253C8.26553 9.9253 8.75524 9.72246 9.11631 9.36139C9.47737 9.00033 9.68022 8.51061 9.68022 7.99999C9.68022 7.48936 9.47737 6.99965 9.11631 6.63859C8.75524 6.27752 8.26553 6.07468 7.7549 6.07468Z" fill="#4278F0"/>
<path d="M46.2609 7.99999C46.2609 4.45741 43.3858 1.58228 39.8432 1.58228C36.3006 1.58228 33.4255 4.45741 33.4255 7.99999C33.4255 11.1062 35.6332 13.6925 38.5597 14.2893V9.9253H37.2761V7.99999H38.5597V6.39556C38.5597 5.15694 39.5673 4.14936 40.8059 4.14936H42.4103V6.07468H41.1268C40.7738 6.07468 40.485 6.36347 40.485 6.71645V7.99999H42.4103V9.9253H40.485V14.3856C43.7259 14.0647 46.2609 11.3308 46.2609 7.99999Z" fill="#4278F0"/>
<path d="M77.7078 4.14927C77.2118 4.37389 76.6771 4.52149 76.123 4.59209C76.6899 4.25195 77.128 3.71286 77.3342 3.06467C76.7995 3.38556 76.2068 3.61018 75.5819 3.73853C75.0729 3.18661 74.3579 2.86572 73.5461 2.86572C72.0322 2.86572 70.7953 4.09792 70.7953 5.61892C70.7953 5.83712 70.8211 6.04891 70.8661 6.24786C68.5727 6.13234 66.5305 5.03491 65.1712 3.37272C64.9328 3.77704 64.7975 4.25195 64.7975 4.75253C64.7975 5.70877 65.2807 6.55591 66.028 7.03724C65.5706 7.03724 65.1454 6.90888 64.7718 6.71635V6.7356C64.7718 8.07049 65.7252 9.18717 66.9879 9.43746C66.5825 9.54798 66.1569 9.56336 65.7446 9.48239C65.9195 10.0295 66.2622 10.5082 66.7244 10.8512C67.1866 11.1943 67.7452 11.3844 68.3215 11.3949C67.3446 12.1653 66.1337 12.5817 64.8877 12.5757C64.6687 12.5757 64.4497 12.5629 64.2306 12.5372C65.4547 13.3202 66.9106 13.7758 68.4696 13.7758C73.5461 13.7758 76.3356 9.57865 76.3356 5.93981C76.3356 5.81787 76.3356 5.70235 76.3292 5.58042C76.8703 5.19535 77.3342 4.70761 77.7078 4.14927Z" fill="#4278F0"/>
<path d="M104.663 2.224C105.003 2.224 105.33 2.35923 105.57 2.59994C105.811 2.84065 105.946 3.16713 105.946 3.50754V12.4923C105.946 12.8328 105.811 13.1592 105.57 13.3999C105.33 13.6407 105.003 13.7759 104.663 13.7759H95.678C95.3376 13.7759 95.0111 13.6407 94.7704 13.3999C94.5297 13.1592 94.3945 12.8328 94.3945 12.4923V3.50754C94.3945 3.16713 94.5297 2.84065 94.7704 2.59994C95.0111 2.35923 95.3376 2.224 95.678 2.224H104.663ZM104.342 12.1715V8.77007C104.342 8.21519 104.122 7.68304 103.729 7.29068C103.337 6.89832 102.805 6.67789 102.25 6.67789C101.704 6.67789 101.069 7.01161 100.761 7.5122V6.79983H98.9703V12.1715H100.761V9.00752C100.761 8.51336 101.159 8.10904 101.653 8.10904C101.891 8.10904 102.12 8.2037 102.288 8.3722C102.457 8.5407 102.551 8.76923 102.551 9.00752V12.1715H104.342ZM96.8845 5.79225C97.1705 5.79225 97.4447 5.67866 97.6469 5.47646C97.8491 5.27426 97.9627 5.00002 97.9627 4.71407C97.9627 4.11723 97.4814 3.62948 96.8845 3.62948C96.5969 3.62948 96.321 3.74375 96.1176 3.94715C95.9142 4.15055 95.7999 4.42642 95.7999 4.71407C95.7999 5.31092 96.2877 5.79225 96.8845 5.79225ZM97.7766 12.1715V6.79983H95.9989V12.1715H97.7766Z" fill="#4278F0"/>
</svg>
