<svg width="40" height="41" viewBox="0 0 40 41" fill="none" xmlns="http://www.w3.org/2000/svg">
<rect y="0.666748" width="40" height="40" rx="20" fill="#4278F0"/>
<path d="M18.5542 14.9068L15.1712 11.0018C14.7812 10.5518 14.0662 10.5538 13.6132 11.0078L10.8312 13.7948C10.0032 14.6238 9.76623 15.8548 10.2452 16.8418C13.1069 22.7667 17.8853 27.5519 23.8062 30.4218C24.7922 30.9008 26.0222 30.6638 26.8502 29.8348L29.6582 27.0218C30.1132 26.5668 30.1142 25.8478 29.6602 25.4578L25.7402 22.0928C25.3302 21.7408 24.6932 21.7868 24.2822 22.1988L22.9182 23.5648C22.8484 23.638 22.7565 23.6862 22.6566 23.7021C22.5567 23.718 22.4543 23.7007 22.3652 23.6528C20.1357 22.3689 18.2862 20.517 17.0052 18.2858C16.9573 18.1965 16.9399 18.094 16.9558 17.9939C16.9717 17.8939 17.02 17.8018 17.0932 17.7318L18.4532 16.3708C18.8652 15.9568 18.9102 15.3168 18.5542 14.9058V14.9068Z" stroke="white" stroke-width="1.5" stroke-linecap="round" stroke-linejoin="round"/>
</svg>
