<svg width="25" height="25" viewBox="0 0 25 25" fill="none" xmlns="http://www.w3.org/2000/svg">
<path d="M8.31415 2.66675H16.8669C20.1251 2.66675 22.7723 5.26675 22.7723 8.46675V16.8667C22.7723 18.405 22.1501 19.8803 21.0427 20.968C19.9352 22.0557 18.4331 22.6667 16.8669 22.6667H8.31415C5.05596 22.6667 2.40869 20.0667 2.40869 16.8667V8.46675C2.40869 6.92849 3.03087 5.45324 4.13836 4.36553C5.24585 3.27782 6.74792 2.66675 8.31415 2.66675ZM8.11051 4.66675C7.13837 4.66675 6.20605 5.04603 5.51864 5.72116C4.83124 6.39629 4.44506 7.31197 4.44506 8.26675V17.0667C4.44506 19.0567 6.08433 20.6667 8.11051 20.6667H17.0705C18.0426 20.6667 18.975 20.2875 19.6624 19.6123C20.3498 18.9372 20.736 18.0215 20.736 17.0667V8.26675C20.736 6.27675 19.0967 4.66675 17.0705 4.66675H8.11051ZM17.936 6.16675C18.2735 6.16675 18.5972 6.29844 18.8359 6.53286C19.0746 6.76729 19.2087 7.08523 19.2087 7.41675C19.2087 7.74827 19.0746 8.06621 18.8359 8.30063C18.5972 8.53505 18.2735 8.66675 17.936 8.66675C17.5984 8.66675 17.2747 8.53505 17.036 8.30063C16.7973 8.06621 16.6632 7.74827 16.6632 7.41675C16.6632 7.08523 16.7973 6.76729 17.036 6.53286C17.2747 6.29844 17.5984 6.16675 17.936 6.16675ZM12.5905 7.66675C13.9407 7.66675 15.2356 8.19353 16.1903 9.13121C17.1451 10.0689 17.6814 11.3407 17.6814 12.6667C17.6814 13.9928 17.1451 15.2646 16.1903 16.2023C15.2356 17.14 13.9407 17.6667 12.5905 17.6667C11.2403 17.6667 9.94542 17.14 8.99069 16.2023C8.03596 15.2646 7.4996 13.9928 7.4996 12.6667C7.4996 11.3407 8.03596 10.0689 8.99069 9.13121C9.94542 8.19353 11.2403 7.66675 12.5905 7.66675ZM12.5905 9.66675C11.7804 9.66675 11.0035 9.98282 10.4306 10.5454C9.85778 11.108 9.53596 11.8711 9.53596 12.6667C9.53596 13.4624 9.85778 14.2255 10.4306 14.7881C11.0035 15.3507 11.7804 15.6667 12.5905 15.6667C13.4006 15.6667 14.1776 15.3507 14.7504 14.7881C15.3232 14.2255 15.6451 13.4624 15.6451 12.6667C15.6451 11.8711 15.3232 11.108 14.7504 10.5454C14.1776 9.98282 13.4006 9.66675 12.5905 9.66675Z" fill="#F3F3F3"/>
</svg>
