<svg width="25" height="24" viewBox="0 0 25 24" fill="none" xmlns="http://www.w3.org/2000/svg">
<path d="M7.94159 2H16.4943C19.7525 2 22.3998 4.6 22.3998 7.8V16.2C22.3998 17.7383 21.7776 19.2135 20.6701 20.3012C19.5626 21.3889 18.0605 22 16.4943 22H7.94159C4.68341 22 2.03613 19.4 2.03613 16.2V7.8C2.03613 6.26174 2.65831 4.78649 3.7658 3.69878C4.87329 2.61107 6.37536 2 7.94159 2ZM7.73795 4C6.76581 4 5.83349 4.37928 5.14608 5.05442C4.45868 5.72955 4.0725 6.64522 4.0725 7.6V16.4C4.0725 18.39 5.71177 20 7.73795 20H16.698C17.6701 20 18.6024 19.6207 19.2898 18.9456C19.9772 18.2705 20.3634 17.3548 20.3634 16.4V7.6C20.3634 5.61 18.7241 4 16.698 4H7.73795ZM17.5634 5.5C17.901 5.5 18.2247 5.6317 18.4634 5.86612C18.702 6.10054 18.8361 6.41848 18.8361 6.75C18.8361 7.08152 18.702 7.39946 18.4634 7.63388C18.2247 7.8683 17.901 8 17.5634 8C17.2259 8 16.9021 7.8683 16.6635 7.63388C16.4248 7.39946 16.2907 7.08152 16.2907 6.75C16.2907 6.41848 16.4248 6.10054 16.6635 5.86612C16.9021 5.6317 17.2259 5.5 17.5634 5.5ZM12.218 7C13.5681 7 14.863 7.52678 15.8178 8.46447C16.7725 9.40215 17.3089 10.6739 17.3089 12C17.3089 13.3261 16.7725 14.5979 15.8178 15.5355C14.863 16.4732 13.5681 17 12.218 17C10.8678 17 9.57287 16.4732 8.61813 15.5355C7.6634 14.5979 7.12704 13.3261 7.12704 12C7.12704 10.6739 7.6634 9.40215 8.61813 8.46447C9.57287 7.52678 10.8678 7 12.218 7ZM12.218 9C11.4078 9 10.6309 9.31607 10.0581 9.87868C9.48522 10.4413 9.16341 11.2044 9.16341 12C9.16341 12.7956 9.48522 13.5587 10.0581 14.1213C10.6309 14.6839 11.4078 15 12.218 15C13.0281 15 13.805 14.6839 14.3778 14.1213C14.9507 13.5587 15.2725 12.7956 15.2725 12C15.2725 11.2044 14.9507 10.4413 14.3778 9.87868C13.805 9.31607 13.0281 9 12.218 9Z" fill="#F3F3F3"/>
</svg>
