<svg width="70" height="70" viewBox="0 0 70 70" fill="none" xmlns="http://www.w3.org/2000/svg">
<g clip-path="url(#clip0_4_671)">
<path d="M37.0475 6.4019L57.4642 14.0582C58.5763 14.475 59.5347 15.2215 60.2112 16.1977C60.8877 17.1739 61.2501 18.3334 61.25 19.5211V35.1632C61.2501 40.0381 59.8927 44.8169 57.3298 48.9638C54.7669 53.1108 51.0999 56.4621 46.7396 58.6423L36.9571 63.5336C36.3495 63.8375 35.6794 63.9957 35 63.9957C34.3206 63.9957 33.6505 63.8375 33.0429 63.5336L23.2604 58.6423C18.9001 56.4621 15.2331 53.1108 12.6702 48.9638C10.1073 44.8169 8.74989 40.0381 8.75 35.1632V19.5211C8.74985 18.3334 9.11226 17.1739 9.78878 16.1977C10.4653 15.2215 11.4237 14.475 12.5358 14.0582L32.9525 6.4019C34.2727 5.90705 35.7274 5.90705 37.0475 6.4019ZM35 11.8648L14.5833 19.5211V35.1632C14.584 38.9544 15.6403 42.6706 17.6339 45.8954C19.6275 49.1202 22.4797 51.7262 25.8708 53.4215L35 57.9919L44.1292 53.4273C47.5212 51.7316 50.3739 49.1247 52.3676 45.8988C54.3613 42.6729 55.4171 38.9554 55.4167 35.1632V19.5211L35 11.8648ZM35 23.3332C36.245 23.3326 37.4575 23.7305 38.4602 24.4685C39.4629 25.2065 40.2032 26.246 40.5728 27.4349C40.9424 28.6238 40.9219 29.8998 40.5143 31.0762C40.1067 32.2526 39.3334 33.2677 38.3075 33.9732L37.9167 34.2211V43.7498C37.9158 44.4932 37.6312 45.2082 37.1209 45.7488C36.6105 46.2894 35.9131 46.6147 35.1709 46.6582C34.4288 46.7018 33.6981 46.4604 33.128 45.9832C32.5579 45.5061 32.1916 44.8293 32.1038 44.0911L32.0833 43.7498V34.2211C30.9699 33.5796 30.0994 32.5885 29.607 31.4015C29.1147 30.2146 29.028 28.8983 29.3605 27.6571C29.693 26.4158 30.4261 25.3191 31.4458 24.5372C32.4656 23.7554 33.715 23.3321 35 23.3332Z" fill="#4278F0"/>
</g>
<defs>
<clipPath id="clip0_4_671">
<rect width="70" height="70" fill="white"/>
</clipPath>
</defs>
</svg>
