<svg width="19" height="19" viewBox="0 0 19 19" fill="none" xmlns="http://www.w3.org/2000/svg">
<path d="M16.627 0.666748C17.1574 0.666748 17.6661 0.877462 18.0412 1.25253C18.4162 1.62761 18.627 2.13632 18.627 2.66675V16.6667C18.627 17.1972 18.4162 17.7059 18.0412 18.081C17.6661 18.456 17.1574 18.6667 16.627 18.6667H2.62695C2.09652 18.6667 1.58781 18.456 1.21274 18.081C0.837667 17.7059 0.626953 17.1972 0.626953 16.6667V2.66675C0.626953 2.13632 0.837667 1.62761 1.21274 1.25253C1.58781 0.877462 2.09652 0.666748 2.62695 0.666748H16.627ZM16.127 16.1667V10.8667C16.127 10.0021 15.7835 9.17295 15.1721 8.56158C14.5608 7.95021 13.7316 7.60675 12.867 7.60675C12.017 7.60675 11.027 8.12675 10.547 8.90675V7.79675H7.75695V16.1667H10.547V11.2367C10.547 10.4667 11.167 9.83675 11.937 9.83675C12.3083 9.83675 12.6644 9.98425 12.9269 10.2468C13.1895 10.5093 13.337 10.8654 13.337 11.2367V16.1667H16.127ZM4.50695 6.22675C4.95252 6.22675 5.37983 6.04975 5.69489 5.73469C6.00995 5.41963 6.18695 4.99231 6.18695 4.54675C6.18695 3.61675 5.43695 2.85675 4.50695 2.85675C4.05874 2.85675 3.62888 3.0348 3.31194 3.35174C2.99501 3.66867 2.81695 4.09853 2.81695 4.54675C2.81695 5.47675 3.57695 6.22675 4.50695 6.22675ZM5.89695 16.1667V7.79675H3.12695V16.1667H5.89695Z" fill="#F3F3F3"/>
</svg>
