<svg width="23" height="18" viewBox="0 0 23 18" fill="none" xmlns="http://www.w3.org/2000/svg">
<path d="M22.2549 2.5C21.4679 2.85 20.6195 3.08 19.7406 3.19C20.64 2.66 21.335 1.82 21.6621 0.81C20.8137 1.31 19.8734 1.66 18.882 1.86C18.0746 1 16.9401 0.5 15.6523 0.5C13.2504 0.5 11.288 2.42 11.288 4.79C11.288 5.13 11.3289 5.46 11.4004 5.77C7.76184 5.59 4.52186 3.88 2.36528 1.29C1.98711 1.92 1.77247 2.66 1.77247 3.44C1.77247 4.93 2.53903 6.25 3.72464 7C2.99896 7 2.32439 6.8 1.73159 6.5V6.53C1.73159 8.61 3.24426 10.35 5.24753 10.74C4.60437 10.9122 3.92915 10.9362 3.27492 10.81C3.55253 11.6625 4.0962 12.4084 4.82952 12.9429C5.56284 13.4775 6.44893 13.7737 7.36323 13.79C5.81338 14.9904 3.89225 15.6393 1.91556 15.63C1.56806 15.63 1.22055 15.61 0.873047 15.57C2.81499 16.79 5.12488 17.5 7.5983 17.5C15.6523 17.5 20.0778 10.96 20.0778 5.29C20.0778 5.1 20.0778 4.92 20.0676 4.73C20.9262 4.13 21.6621 3.37 22.2549 2.5Z" fill="#F3F3F3"/>
</svg>
