<svg width="22" height="18" viewBox="0 0 22 18" fill="none" xmlns="http://www.w3.org/2000/svg">
<path d="M21.6269 2.16675C20.8399 2.51675 19.9916 2.74675 19.1126 2.85675C20.0121 2.32675 20.7071 1.48675 21.0341 0.476748C20.1858 0.976748 19.2455 1.32675 18.2541 1.52675C17.4466 0.666748 16.3121 0.166748 15.0243 0.166748C12.6225 0.166748 10.6601 2.08675 10.6601 4.45675C10.6601 4.79675 10.701 5.12675 10.7725 5.43675C7.13391 5.25675 3.89393 3.54675 1.73735 0.956748C1.35918 1.58675 1.14454 2.32675 1.14454 3.10675C1.14454 4.59675 1.9111 5.91675 3.09671 6.66675C2.37103 6.66675 1.69646 6.46675 1.10366 6.16675V6.19675C1.10366 8.27675 2.61633 10.0167 4.6196 10.4067C3.97644 10.579 3.30122 10.6029 2.64699 10.4767C2.9246 11.3292 3.46827 12.0752 4.20159 12.6097C4.93491 13.1442 5.821 13.4404 6.7353 13.4567C5.18545 14.6572 3.26432 15.3061 1.28763 15.2967C0.940129 15.2967 0.592623 15.2767 0.245117 15.2367C2.18706 16.4567 4.49695 17.1667 6.97037 17.1667C15.0243 17.1667 19.4499 10.6267 19.4499 4.95675C19.4499 4.76675 19.4499 4.58675 19.4397 4.39675C20.2982 3.79675 21.0341 3.03675 21.6269 2.16675Z" fill="#F3F3F3"/>
</svg>
