<svg width="19" height="18" viewBox="0 0 19 18" fill="none" xmlns="http://www.w3.org/2000/svg">
<path d="M16.2549 0C16.7853 0 17.294 0.210714 17.6691 0.585786C18.0442 0.960859 18.2549 1.46957 18.2549 2V16C18.2549 16.5304 18.0442 17.0391 17.6691 17.4142C17.294 17.7893 16.7853 18 16.2549 18H2.25488C1.72445 18 1.21574 17.7893 0.840669 17.4142C0.465596 17.0391 0.254883 16.5304 0.254883 16V2C0.254883 1.46957 0.465596 0.960859 0.840669 0.585786C1.21574 0.210714 1.72445 0 2.25488 0H16.2549ZM15.7549 15.5V10.2C15.7549 9.33539 15.4114 8.5062 14.8001 7.89483C14.1887 7.28346 13.3595 6.94 12.4949 6.94C11.6449 6.94 10.6549 7.46 10.1749 8.24V7.13H7.38488V15.5H10.1749V10.57C10.1749 9.8 10.7949 9.17 11.5649 9.17C11.9362 9.17 12.2923 9.3175 12.5548 9.58005C12.8174 9.8426 12.9649 10.1987 12.9649 10.57V15.5H15.7549ZM4.13488 5.56C4.58045 5.56 5.00776 5.383 5.32282 5.06794C5.63788 4.75288 5.81488 4.32556 5.81488 3.88C5.81488 2.95 5.06488 2.19 4.13488 2.19C3.68667 2.19 3.25681 2.36805 2.93987 2.68499C2.62294 3.00193 2.44488 3.43178 2.44488 3.88C2.44488 4.81 3.20488 5.56 4.13488 5.56ZM5.52488 15.5V7.13H2.75488V15.5H5.52488Z" fill="#F3F3F3"/>
</svg>
