<svg width="15" height="16" viewBox="0 0 15 16" fill="none" xmlns="http://www.w3.org/2000/svg">
<path d="M6.45 11.6167L11.7375 6.32925L10.6875 5.27925L6.45 9.51675L4.3125 7.37925L3.2625 8.42925L6.45 11.6167ZM7.5 15.6667C6.4625 15.6667 5.4875 15.4697 4.575 15.0757C3.6625 14.6817 2.86875 14.1475 2.19375 13.473C1.51875 12.798 0.9845 12.0042 0.591 11.0917C0.1975 10.1792 0.0005 9.20425 0 8.16675C0 7.12925 0.197 6.15425 0.591 5.24175C0.985 4.32925 1.51925 3.5355 2.19375 2.8605C2.86875 2.1855 3.6625 1.65125 4.575 1.25775C5.4875 0.864248 6.4625 0.667248 7.5 0.666748C8.5375 0.666748 9.5125 0.863748 10.425 1.25775C11.3375 1.65175 12.1312 2.186 12.8062 2.8605C13.4812 3.5355 14.0157 4.32925 14.4097 5.24175C14.8037 6.15425 15.0005 7.12925 15 8.16675C15 9.20425 14.803 10.1792 14.409 11.0917C14.015 12.0042 13.4807 12.798 12.8062 13.473C12.1312 14.148 11.3375 14.6825 10.425 15.0765C9.5125 15.4705 8.5375 15.6672 7.5 15.6667ZM7.5 14.1667C9.175 14.1667 10.5937 13.5855 11.7562 12.423C12.9187 11.2605 13.5 9.84175 13.5 8.16675C13.5 6.49175 12.9187 5.073 11.7562 3.9105C10.5937 2.748 9.175 2.16675 7.5 2.16675C5.825 2.16675 4.40625 2.748 3.24375 3.9105C2.08125 5.073 1.5 6.49175 1.5 8.16675C1.5 9.84175 2.08125 11.2605 3.24375 12.423C4.40625 13.5855 5.825 14.1667 7.5 14.1667Z" fill="#0E7A60"/>
</svg>
